<svg xmlns="http://www.w3.org/2000/svg" width="18" height="18.586" viewBox="0 0 18 18.586">
  <g id="credit-card_1_" data-name="credit-card (1)" transform="translate(-7.7 0)">
    <g id="Group_23066" data-name="Group 23066" transform="translate(7.7 0)">
      <path id="Path_42850" data-name="Path 42850" d="M22.049,4.79a.249.249,0,0,0,.1-.475L12.646.1a1.148,1.148,0,0,0-1.518.582L7.8,8.145a1.148,1.148,0,0,0,.582,1.518l1.917.829a.365.365,0,0,0,.513-.331V6.992a2.2,2.2,0,0,1,2.2-2.2h9.037v0Z" transform="translate(-7.7 0)" fill="#006ab7"/>
      <path id="Path_42851" data-name="Path 42851" d="M129.329,153.136H117.8a1.164,1.164,0,0,0-1.164,1.164v8.144a1.164,1.164,0,0,0,1.164,1.164h1.548a4.227,4.227,0,0,1-.057-.7,4.4,4.4,0,0,1,.072-.78h-1.248v-3.9h10.9v3.895h-1.251a4.4,4.4,0,0,1,.072.78,4.227,4.227,0,0,1-.057.7h1.548a1.164,1.164,0,0,0,1.164-1.164V154.3A1.164,1.164,0,0,0,129.329,153.136Zm-.312,2.7h-10.9v-1.221h10.9Z" transform="translate(-112.493 -147.311)" fill="#006ab7"/>
      <path id="Path_42852" data-name="Path 42852" d="M223.226,331.436a2.99,2.99,0,1,0,2.99,2.99A2.99,2.99,0,0,0,223.226,331.436Zm.86,4.169a.946.946,0,0,1-.5.32.139.139,0,0,0-.122.16c0,.087,0,.175,0,.266a.107.107,0,0,1-.118.122q-.143.006-.285,0c-.084,0-.122-.049-.122-.129v-.194c0-.141-.008-.148-.145-.171a1.794,1.794,0,0,1-.506-.145c-.126-.061-.141-.091-.1-.224.027-.1.053-.2.084-.293.034-.114.065-.126.171-.072a1.632,1.632,0,0,0,.563.167.684.684,0,0,0,.369-.049.285.285,0,0,0,.068-.5.771.771,0,0,0-.209-.122,4.34,4.34,0,0,1-.574-.259.808.808,0,0,1-.46-.78.857.857,0,0,1,.628-.795c.152-.057.156-.053.156-.213v-.164c0-.122.023-.141.145-.145h.11c.259,0,.259,0,.259.259,0,.183,0,.183.183.209a1.658,1.658,0,0,1,.4.118.115.115,0,0,1,.076.156c-.03.11-.061.224-.1.331s-.068.118-.167.072a1.255,1.255,0,0,0-.631-.126.505.505,0,0,0-.167.034.24.24,0,0,0-.061.426,1.215,1.215,0,0,0,.274.156,4.242,4.242,0,0,1,.5.228A.9.9,0,0,1,224.085,335.6Z" transform="translate(-212.152 -318.829)" fill="#006ab7"/>
    </g>
  </g>
</svg>
