<svg id="key" xmlns="http://www.w3.org/2000/svg" width="18.615" height="18.615" viewBox="0 0 18.615 18.615">
  <g id="Group_31962" data-name="Group 31962" transform="translate(6.593)">
    <g id="Group_31961" data-name="Group 31961">
      <path id="Path_48685" data-name="Path 48685" d="M179.405,7.07V4.948L178,4.712a4.712,4.712,0,0,0-.434-1.043l.83-1.159-1.5-1.5-1.156.826a4.935,4.935,0,0,0-1.047-.434L174.457,0h-2.125L172.1,1.4a4.933,4.933,0,0,0-1.047.434L169.9,1.008l-1.5,1.5.83,1.159a4.712,4.712,0,0,0-.434,1.043l-1.4.237V7.07l1.4.237a4.634,4.634,0,0,0,.434,1.043l-.83,1.16,1.5,1.5,1.156-.826a4.931,4.931,0,0,0,1.047.434l.233,1.4h2.125l.233-1.4a4.93,4.93,0,0,0,1.047-.434l1.156.826,1.5-1.5-.83-1.16A4.634,4.634,0,0,0,178,7.306ZM173.394,8.6a2.589,2.589,0,1,1,2.587-2.587A2.589,2.589,0,0,1,173.394,8.6Z" transform="translate(-167.383)" fill="#999"/>
    </g>
  </g>
  <g id="Group_31964" data-name="Group 31964" transform="translate(0 11.634)">
    <g id="Group_31963" data-name="Group 31963">
      <path id="Path_48686" data-name="Path 48686" d="M15.284,297.517H6.706a3.491,3.491,0,1,0,0,2.715H8.784l.539-.6.6.6H10.7l1.129,1.129L13.186,300l.617.617h1.481l1.551-1.551ZM2.327,299.649a.776.776,0,1,1,.776-.776A.776.776,0,0,1,2.327,299.649Z" transform="translate(0 -295.384)" fill="#999"/>
    </g>
  </g>
</svg>
