<svg id="management" xmlns="http://www.w3.org/2000/svg" width="18" height="19.248" viewBox="0 0 18 19.248">
  <path id="Path_42859" data-name="Path 42859" d="M16.306,136.8l.446-.257a.38.38,0,0,0,.139-.519l-.845-1.463a.38.38,0,0,0-.519-.139l-.446.257a.379.379,0,0,1-.57-.329v-.515a.38.38,0,0,0-.38-.38h-1.69a.38.38,0,0,0-.38.38v.515a.379.379,0,0,1-.57.329l-.446-.257a.38.38,0,0,0-.519.139l-.845,1.463a.38.38,0,0,0,.139.519l.446.257a.38.38,0,0,1,0,.658l-.446.257a.38.38,0,0,0-.139.519l.845,1.463a.38.38,0,0,0,.519.139l.446-.257a.379.379,0,0,1,.57.329v.515a.38.38,0,0,0,.38.38h1.69a.38.38,0,0,0,.38-.38v-.515a.379.379,0,0,1,.57-.329l.446.257a.38.38,0,0,0,.519-.139l.845-1.463a.38.38,0,0,0-.139-.519l-.446-.257A.38.38,0,0,1,16.306,136.8Zm-3.02,1.457a1.127,1.127,0,1,1,1.127-1.127,1.127,1.127,0,0,1-1.127,1.127Z" transform="translate(-9.63 -124.804)" fill="#999"/>
  <path id="Path_42860" data-name="Path 42860" d="M17.084,21.454a.522.522,0,0,0-.738.738l.933.933a6.884,6.884,0,0,0-6.5,6.254l.077-.134a1.243,1.243,0,0,1,1.074-.62h.028a5.841,5.841,0,0,1,5.3-4.454l-.911.911a.522.522,0,0,0,.738.738L18.9,24.007a.522.522,0,0,0,0-.738Z" transform="translate(-10.702 -19.921)" fill="#999"/>
  <path id="Path_42861" data-name="Path 42861" d="M179.542,4.2a2.1,2.1,0,1,0-2.1-2.1A2.1,2.1,0,0,0,179.542,4.2Z" transform="translate(-166.564)" fill="#999"/>
  <path id="Path_42862" data-name="Path 42862" d="M154.874,82.427V79.537A1.85,1.85,0,0,0,153.6,77.78h0l-1.112-.184a.186.186,0,0,0-.23.114l-1.261,3.461a.228.228,0,0,1-.428,0L149.3,77.709a.186.186,0,0,0-.175-.123c-.018,0-1.167.192-1.167.192a1.862,1.862,0,0,0-1.278,1.769v2.88a.781.781,0,0,0,.781.781h6.626A.781.781,0,0,0,154.874,82.427Z" transform="translate(-137.803 -72.558)" fill="#999"/>
  <path id="Path_42863" data-name="Path 42863" d="M167.554,162.933a1.123,1.123,0,0,1-1.131,1.006,5.841,5.841,0,0,1-5.378,4.811l.911-.911a.522.522,0,0,0-.738-.738l-1.815,1.815a.522.522,0,0,0,0,.738l1.815,1.815a.522.522,0,0,0,.738-.738l-.933-.933A6.882,6.882,0,0,0,167.554,162.933Z" transform="translate(-149.554 -152.373)" fill="#999"/>
  <path id="Path_42864" data-name="Path 42864" d="M202.766,75.96a.258.258,0,0,0-.191-.079h-.534a.258.258,0,0,0-.191.079.248.248,0,0,0-.033.292l.286.431-.134,1.128.263.7a.08.08,0,0,0,.151,0l.263-.7-.134-1.128.286-.431A.248.248,0,0,0,202.766,75.96Z" transform="translate(-189.331 -70.963)" fill="#999"/>
</svg>
