<svg xmlns="http://www.w3.org/2000/svg" width="17" height="16.999" viewBox="0 0 17 16.999">
  <g id="money_transfer" transform="translate(-0.001)">
    <path id="Path_43427" data-name="Path 43427" d="M10.2,5a4.3,4.3,0,0,0,0,8.6,4.3,4.3,0,0,0,0-8.6Zm-.087,3.763h.175a1.345,1.345,0,0,1,.437,2.605v.262a.525.525,0,1,1-1.05,0V11.45h-.35a.538.538,0,0,1,0-1.075h.962a.269.269,0,0,0,0-.538h-.175a1.345,1.345,0,0,1-.437-2.605V6.971a.525.525,0,1,1,1.05,0V7.15h.35a.538.538,0,0,1,0,1.075h-.962a.269.269,0,0,0,0,.538Z" transform="translate(-1.7 -1.5)" fill="#999"/>
    <path id="Path_43428" data-name="Path 43428" d="M19.011,10.272a.538.538,0,0,0-.538.538,6.831,6.831,0,0,1-5.235,6.629v-.67a.537.537,0,0,0-.917-.38l-1.4,1.4a.538.538,0,0,0,0,.76l1.4,1.4a.538.538,0,0,0,.917-.38V18.547a7.912,7.912,0,0,0,6.31-7.738.538.538,0,0,0-.538-.538Z" transform="translate(-3.25 -3.112)" fill="#999"/>
    <path id="Path_43429" data-name="Path 43429" d="M6.324,15.463A6.8,6.8,0,0,1,2.2,6.677l.644.371a.538.538,0,0,0,.788-.6L3.089,4.412a.538.538,0,0,0-.659-.38L.4,4.576a.538.538,0,0,0-.129.985l.988.57A7.887,7.887,0,0,0,5.969,16.478a.538.538,0,1,0,.355-1.015Z" transform="translate(0 -1.339)" fill="#999"/>
    <path id="Path_43430" data-name="Path 43430" d="M17.915,3.524l-1.156.31A7.956,7.956,0,0,0,9.991,0a7.713,7.713,0,0,0-4.88,1.71.538.538,0,0,0,.674.839A6.644,6.644,0,0,1,9.991,1.075a6.869,6.869,0,0,1,5.677,3.05l-.626.168a.538.538,0,0,0-.13.985L16.733,6.33a.537.537,0,0,0,.734-.2L18.52,4.312a.538.538,0,0,0-.6-.788Z" transform="translate(-1.592)" fill="#999"/>
  </g>
</svg>
