<svg xmlns="http://www.w3.org/2000/svg" width="18.003" height="18" viewBox="0 0 18.003 18">
  <g id="share" transform="translate(-42.697 -49.7)">
    <path id="Path_46246" data-name="Path 46246" d="M47.942,278.079A4.785,4.785,0,0,1,47.076,276H42.7a9.076,9.076,0,0,0,2.149,5.172Z" transform="translate(0 -216.619)" fill="#999"/>
    <path id="Path_46247" data-name="Path 46247" d="M47.076,128.272a4.755,4.755,0,0,1,.866-2.079l-3.1-3.093a9.1,9.1,0,0,0-2.145,5.172Z" transform="translate(0 -70.26)" fill="#999"/>
    <path id="Path_46248" data-name="Path 46248" d="M119.193,54.942a4.785,4.785,0,0,1,2.079-.866V49.7a9.076,9.076,0,0,0-5.172,2.149Z" transform="translate(-70.258)" fill="#999"/>
    <path id="Path_46249" data-name="Path 46249" d="M269,49.7v4.376a4.756,4.756,0,0,1,2.079.866l3.093-3.1A9.1,9.1,0,0,0,269,49.7Z" transform="translate(-216.614)" fill="#999"/>
    <path id="Path_46250" data-name="Path 46250" d="M340.8,126.193a4.785,4.785,0,0,1,.866,2.079h4.376a9.076,9.076,0,0,0-2.149-5.172Z" transform="translate(-285.342 -70.26)" fill="#999"/>
    <path id="Path_46251" data-name="Path 46251" d="M121.272,348.666a4.755,4.755,0,0,1-2.079-.866l-3.093,3.1a9.135,9.135,0,0,0,5.172,2.149Z" transform="translate(-70.258 -285.349)" fill="#999"/>
    <path id="Path_46252" data-name="Path 46252" d="M341.666,276a4.755,4.755,0,0,1-.866,2.079l3.093,3.093A9.135,9.135,0,0,0,346.042,276Z" transform="translate(-285.342 -216.619)" fill="#999"/>
    <path id="Path_46253" data-name="Path 46253" d="M271.079,347.8a4.786,4.786,0,0,1-2.079.866v4.376a9.076,9.076,0,0,0,5.173-2.149Z" transform="translate(-216.614 -285.349)" fill="#999"/>
  </g>
</svg>
