<svg id="shield" xmlns="http://www.w3.org/2000/svg" width="18" height="18" viewBox="0 0 18 18">
  <path id="Path_47483" data-name="Path 47483" d="M121.472,101.067a12.5,12.5,0,0,0,.7,3.037,8.672,8.672,0,0,0,4.756,5.152,8.671,8.671,0,0,0,4.756-5.152,12.5,12.5,0,0,0,.7-3.037l-5.453-2.215Z" transform="translate(-117.925 -95.023)" fill="#999"/>
  <path id="Path_47484" data-name="Path 47484" d="M47.886,4.206a.529.529,0,0,0-.329-.444L39.163.055a.668.668,0,0,0-.534,0L30.235,3.762a.529.529,0,0,0-.329.444,16.617,16.617,0,0,0,.847,5.661,13.251,13.251,0,0,0,2.564,4.583,12.141,12.141,0,0,0,5.367,3.515.672.672,0,0,0,.425,0,12.141,12.141,0,0,0,5.367-3.515,13.251,13.251,0,0,0,2.564-4.583A16.617,16.617,0,0,0,47.886,4.206Zm-8.725,11.44a.668.668,0,0,1-.529,0,10.017,10.017,0,0,1-5.549-6.26,15.4,15.4,0,0,1-.762-3.828.52.52,0,0,1,.329-.5l5.979-2.641a.668.668,0,0,1,.534,0l5.979,2.641a.52.52,0,0,1,.329.5,15.4,15.4,0,0,1-.762,3.827,10.017,10.017,0,0,1-5.549,6.26Z" transform="translate(-29.896 0)" fill="#999"/>
</svg>
